<svg width="82" height="82" viewBox="0 0 82 82" fill="none" xmlns="http://www.w3.org/2000/svg">
<rect y="0.000976562" width="82" height="82.0004" rx="12" fill="#C1B7A3"/>
<path d="M25.25 44.5012C26.7025 45.6247 28.8848 46.281 31.375 46.2512C33.8652 46.281 36.0475 45.6247 37.5 44.5012C38.9525 43.3777 41.1348 42.7215 43.625 42.7512C46.1152 42.7215 48.2975 43.3777 49.75 44.5012M34 25.2512C33.4461 25.6488 32.9974 26.1752 32.6925 26.785C32.3876 27.3948 32.2357 28.0696 32.25 28.7512C32.2357 29.4328 32.3876 30.1077 32.6925 30.7175C32.9974 31.3273 33.4461 31.8537 34 32.2512M41 25.2512C40.4461 25.6488 39.9974 26.1752 39.6925 26.785C39.3876 27.3948 39.2357 28.0696 39.25 28.7512C39.2357 29.4328 39.3876 30.1077 39.6925 30.7175C39.9974 31.3273 40.4461 31.8537 41 32.2512" stroke="#766E5E" stroke-width="3" stroke-linecap="round" stroke-linejoin="round"/>
<path d="M25.25 37.5012H49.75V46.2512C49.75 49.036 48.6438 51.7067 46.6746 53.6758C44.7055 55.645 42.0348 56.7512 39.25 56.7512H35.75C32.9652 56.7512 30.2945 55.645 28.3254 53.6758C26.3562 51.7067 25.25 49.036 25.25 46.2512V37.5012Z" stroke="#766E5E" stroke-width="3" stroke-linecap="round" stroke-linejoin="round"/>
<path d="M49.3055 49.2718C50.0871 49.6305 50.9448 49.7918 51.8033 49.7415C52.6618 49.6911 53.4948 49.4307 54.229 48.983C54.9632 48.5353 55.5763 47.9141 56.0142 47.174C56.4521 46.4338 56.7015 45.5975 56.7405 44.7384C56.7794 43.8793 56.6068 43.0238 56.2377 42.2471C55.8686 41.4704 55.3143 40.7962 54.6236 40.2839C53.9329 39.7716 53.127 39.4367 52.2766 39.3089C51.4262 39.181 50.5574 39.264 49.7465 39.5505" stroke="#766E5E" stroke-width="3" stroke-linecap="round" stroke-linejoin="round"/>
</svg>
