<svg width="82" height="82" viewBox="0 0 82 82" fill="none" xmlns="http://www.w3.org/2000/svg">
<rect y="0.00146484" width="82" height="82.0004" rx="12" fill="#3D4F27"/>
<path fill-rule="evenodd" clip-rule="evenodd" d="M38.0313 24.3767C34.4094 24.3767 30.9359 25.8155 28.3749 28.3765C25.8138 30.9376 24.375 34.4111 24.375 38.033V39.2632C23.653 39.6801 23.0534 40.2797 22.6366 41.0018C22.2197 41.7239 22.0002 42.543 22.0002 43.3767C22.0002 44.2105 22.2197 45.0295 22.6366 45.7516C23.0534 46.4737 23.653 47.0733 24.375 47.4902V51.0955C24.375 52.8277 25.0631 54.4889 26.288 55.7138C27.5128 56.9386 29.1741 57.6267 30.9063 57.6267H51.0938C52.826 57.6267 54.4872 56.9386 55.7121 55.7138C56.9369 54.4889 57.625 52.8277 57.625 51.0955V47.4902C58.3471 47.0733 58.9466 46.4737 59.3635 45.7516C59.7804 45.0295 59.9998 44.2105 59.9998 43.3767C59.9998 42.543 59.7804 41.7239 59.3635 41.0018C58.9466 40.2797 58.3471 39.6801 57.625 39.2632V38.033C57.625 34.4111 56.1863 30.9376 53.6252 28.3765C51.0642 25.8155 47.5906 24.3767 43.9688 24.3767H38.0313ZM55.25 42.1892H26.75C26.4351 42.1892 26.133 42.3143 25.9103 42.537C25.6876 42.7597 25.5625 43.0618 25.5625 43.3767C25.5625 43.6917 25.6876 43.9937 25.9103 44.2164C26.133 44.4391 26.4351 44.5642 26.75 44.5642H55.25C55.565 44.5642 55.867 44.4391 56.0897 44.2164C56.3124 43.9937 56.4375 43.6917 56.4375 43.3767C56.4375 43.0618 56.3124 42.7597 56.0897 42.537C55.867 42.3143 55.565 42.1892 55.25 42.1892ZM54.0625 38.6267V38.033C54.0625 35.3559 52.9991 32.7885 51.1061 30.8956C49.2132 29.0027 46.6458 27.9392 43.9688 27.9392H38.0313C35.3543 27.9392 32.7869 29.0027 30.8939 30.8956C29.001 32.7885 27.9375 35.3559 27.9375 38.033V38.6267H54.0625ZM48.125 48.1267H54.0625V51.0955C54.0625 52.7342 52.7325 54.0642 51.0938 54.0642H30.9063C29.2675 54.0642 27.9375 52.7342 27.9375 51.0955V48.1267H43.375L45.75 50.5017L48.125 48.1267Z" fill="#728F4D"/>
</svg>
