<svg width="82" height="82" viewBox="0 0 82 82" fill="none" xmlns="http://www.w3.org/2000/svg">
<rect y="0.000244141" width="82" height="82.0004" rx="12" fill="#C1B7A3"/>
<path d="M25.1666 53.6671H28.3333M28.3333 53.6671H45.75M28.3333 53.6671V44.7497C28.3333 43.9185 28.3333 43.5021 28.433 43.1142C28.5228 42.7679 28.6663 42.446 28.8637 42.1483C29.0854 41.8158 29.3957 41.5356 30.0148 40.9814L33.658 37.7071C34.8535 36.6336 35.4504 36.0968 36.128 35.8926C36.7239 35.713 37.3594 35.713 37.9552 35.8926C38.6329 36.0968 39.2314 36.6336 40.4284 37.7087L44.07 40.9814C44.6875 41.5356 44.9963 41.8158 45.2195 42.1483C45.4159 42.4444 45.5615 42.7706 45.6502 43.1142C45.75 43.5021 45.75 43.9185 45.75 44.7497V53.6671M45.75 53.6671H53.6666M53.6666 53.6671H56.8333M53.6666 53.6671V33.3957C53.6666 31.6255 53.6666 30.7388 53.3215 30.0627C53.0175 29.4667 52.5324 28.9822 51.936 28.6789C51.26 28.3337 50.3733 28.3337 48.6 28.3337H38.15C36.3766 28.3337 35.49 28.3337 34.8123 28.6789C34.2165 28.9825 33.7321 29.4669 33.4285 30.0627C33.0833 30.7404 33.0833 31.6271 33.0833 33.4004V37.8337" stroke="#766E5E" stroke-width="4" stroke-linecap="round" stroke-linejoin="round"/>
</svg>
