<svg width="82" height="82" viewBox="0 0 82 82" fill="none" xmlns="http://www.w3.org/2000/svg">
<rect y="0.000366211" width="82" height="82.0004" rx="12" fill="#3D4F27"/>
<path d="M31 57.6671C30.0833 57.6671 29.2988 57.341 28.6466 56.6888C27.9944 56.0366 27.6677 55.2516 27.6666 54.3338V37.6671C27.6666 36.7505 27.9933 35.966 28.6466 35.3138C29.3 34.6616 30.0844 34.3349 31 34.3338H32.6666V31.0004C32.6666 28.6949 33.4794 26.7299 35.105 25.1054C36.7305 23.481 38.6955 22.6682 41 22.6671C43.3044 22.666 45.27 23.4788 46.8966 25.1054C48.5233 26.7321 49.3355 28.6971 49.3333 31.0004V34.3338H51C51.9166 34.3338 52.7016 34.6604 53.355 35.3138C54.0083 35.9671 54.3344 36.7516 54.3333 37.6671V54.3338C54.3333 55.2505 54.0072 56.0354 53.355 56.6888C52.7027 57.3421 51.9177 57.6682 51 57.6671H31ZM31 54.3338H51V37.6671H31V54.3338ZM41 49.3338C41.9166 49.3338 42.7016 49.0077 43.355 48.3554C44.0083 47.7032 44.3344 46.9182 44.3333 46.0005C44.3322 45.0827 44.0061 44.2982 43.355 43.6471C42.7038 42.996 41.9188 42.6693 41 42.6671C40.0811 42.6649 39.2966 42.9916 38.6466 43.6471C37.9966 44.3027 37.67 45.0871 37.6666 46.0005C37.6633 46.9138 37.99 47.6988 38.6466 48.3554C39.3033 49.0121 40.0877 49.3382 41 49.3338ZM36 34.3338H46V31.0004C46 29.6116 45.5138 28.431 44.5416 27.4588C43.5694 26.4866 42.3888 26.0004 41 26.0004C39.6111 26.0004 38.4305 26.4866 37.4583 27.4588C36.4861 28.431 36 29.6116 36 31.0004V34.3338Z" fill="#728F4D"/>
</svg>
