<svg width="82" height="82" viewBox="0 0 82 82" fill="none" xmlns="http://www.w3.org/2000/svg">
<rect width="82" height="82.0004" rx="12" fill="#728F4D"/>
<path d="M34.7 50.65L41 46.85L47.3 50.7L45.65 43.5L51.2 38.7L43.9 38.05L41 31.25L38.1 38L30.8 38.65L36.35 43.5L34.7 50.65ZM41 51.55L32.7 56.55C32.3334 56.7834 31.95 56.8834 31.55 56.85C31.15 56.8167 30.8 56.6834 30.5 56.45C30.2 56.2167 29.9667 55.9254 29.8 55.576C29.6334 55.2267 29.6 54.8347 29.7 54.4L31.9 44.95L24.55 38.6C24.2167 38.3 24.0087 37.958 23.926 37.574C23.8434 37.19 23.868 36.8154 24 36.45C24.132 36.0847 24.332 35.7847 24.6 35.55C24.868 35.3154 25.2347 35.1654 25.7 35.1L35.4 34.25L39.15 25.35C39.3167 24.95 39.5754 24.65 39.926 24.45C40.2767 24.25 40.6347 24.15 41 24.15C41.3654 24.15 41.7234 24.25 42.074 24.45C42.4247 24.65 42.6834 24.95 42.85 25.35L46.6 34.25L56.3 35.1C56.7667 35.1667 57.1334 35.3167 57.4 35.55C57.6667 35.7834 57.8667 36.0834 58 36.45C58.1334 36.8167 58.1587 37.192 58.076 37.576C57.9934 37.96 57.7847 38.3014 57.45 38.6L50.1 44.95L52.3 54.4C52.4 54.8334 52.3667 55.2254 52.2 55.576C52.0334 55.9267 51.8 56.218 51.5 56.45C51.2 56.682 50.85 56.8154 50.45 56.85C50.05 56.8847 49.6667 56.7847 49.3 56.55L41 51.55Z" fill="#3D4F27"/>
</svg>
