<svg width="82" height="82" viewBox="0 0 82 82" fill="none" xmlns="http://www.w3.org/2000/svg">
<rect width="82" height="82.0004" rx="12" fill="#728F4D"/>
<path d="M52.1056 50.4991C49.2927 47.6866 45.4778 46.1065 41.5 46.1065C37.5222 46.1065 33.7073 47.6866 30.8945 50.4991M52.9995 24.6082C50.2435 23.017 46.9683 22.5858 43.8943 23.4095C40.8204 24.2331 38.1995 26.2441 36.6082 29L57.3914 40.9995C58.9825 38.2435 59.4137 34.9683 58.5901 31.8943C57.7665 28.8204 55.7555 26.1995 52.9995 24.6082Z" stroke="#3D4F27" stroke-width="3" stroke-linecap="round" stroke-linejoin="round"/>
<path d="M50.4636 36.9997C53.7794 31.2599 54.9134 25.7121 52.9995 24.6082C51.0856 23.5042 46.8497 27.2601 43.5359 32.9998M46.9997 34.9998L41 45.3913M23.0007 55.4989C23.6233 55.1894 24.3057 55.0188 25.0006 54.9989C25.7796 54.9826 26.5508 55.1562 27.2477 55.5046C27.9446 55.853 28.5462 56.3659 29.0005 56.9988C29.4548 57.6318 30.0564 58.1446 30.7533 58.4931C31.4501 58.8415 32.2214 59.0151 33.0003 58.9987C33.7793 59.0151 34.5505 58.8415 35.2474 58.4931C35.9442 58.1446 36.5458 57.6318 37.0001 56.9988C37.4545 56.3659 38.056 55.853 38.7529 55.5046C39.4498 55.1562 40.221 54.9826 41 54.9989C41.7789 54.9826 42.5502 55.1562 43.247 55.5046C43.9439 55.853 44.5455 56.3659 44.9998 56.9988C45.4541 57.6318 46.0557 58.1446 46.7526 58.4931C47.4495 58.8415 48.2207 59.0151 48.9996 58.9987C49.7786 59.0151 50.5498 58.8415 51.2467 58.4931C51.9436 58.1446 52.5452 57.6318 52.9995 56.9988C53.4538 56.3659 54.0554 55.853 54.7523 55.5046C55.4491 55.1562 56.2204 54.9826 56.9993 54.9989C57.6943 55.0188 58.3767 55.1894 58.9992 55.4989" stroke="#3D4F27" stroke-width="3" stroke-linecap="round" stroke-linejoin="round"/>
</svg>
