<svg width="82" height="82" viewBox="0 0 82 82" fill="none" xmlns="http://www.w3.org/2000/svg">
<rect y="0.000732422" width="82" height="82.0004" rx="12" fill="#3D4F27"/>
<path d="M26 56.0009C25.0834 56.0009 24.2989 55.6748 23.6467 55.0226C22.9945 54.3703 22.6678 53.5854 22.6667 52.6676V32.6676C22.6667 31.7509 22.9934 30.9665 23.6467 30.3142C24.3 29.662 25.0845 29.3353 26 29.3342H31.25L34.3334 26.0009H44.3334V29.3342H35.7917L32.75 32.6676H26V52.6676H52.6667V37.6676H56V52.6676C56 53.5842 55.6739 54.3692 55.0217 55.0226C54.3695 55.6759 53.5845 56.002 52.6667 56.0009H26ZM52.6667 32.6676V29.3342H49.3334V26.0009H52.6667V22.6676H56V26.0009H59.3334V29.3342H56V32.6676H52.6667ZM39.3334 50.1676C41.4167 50.1676 43.1878 49.4387 44.6467 47.9809C46.1056 46.5231 46.8345 44.752 46.8334 42.6676C46.8322 40.5831 46.1034 38.8126 44.6467 37.3559C43.19 35.8992 41.4189 35.1698 39.3334 35.1676C37.2478 35.1653 35.4772 35.8948 34.0217 37.3559C32.5661 38.817 31.8367 40.5876 31.8334 42.6676C31.83 44.7476 32.5595 46.5187 34.0217 47.9809C35.4839 49.4431 37.2545 50.172 39.3334 50.1676ZM39.3334 46.8342C38.1667 46.8342 37.1806 46.4315 36.375 45.6259C35.5695 44.8203 35.1667 43.8342 35.1667 42.6676C35.1667 41.5009 35.5695 40.5148 36.375 39.7092C37.1806 38.9037 38.1667 38.5009 39.3334 38.5009C40.5 38.5009 41.4861 38.9037 42.2917 39.7092C43.0972 40.5148 43.5 41.5009 43.5 42.6676C43.5 43.8342 43.0972 44.8203 42.2917 45.6259C41.4861 46.4315 40.5 46.8342 39.3334 46.8342Z" fill="#728F4D"/>
</svg>
