<svg width="82" height="82" viewBox="0 0 82 82" fill="none" xmlns="http://www.w3.org/2000/svg">
<rect y="0.000488281" width="82" height="82.0004" rx="12" fill="#3D4F27"/>
<path d="M22.6667 52.0008V42.8341C22.6667 42.0091 22.8347 41.2605 23.1709 40.5883C23.507 39.9161 23.95 39.3203 24.5 38.8008V33.6675C24.5 32.1397 25.0347 30.8411 26.1042 29.7716C27.1736 28.7022 28.4722 28.1675 30 28.1675H37.3334C38.0361 28.1675 38.6931 28.2976 39.3042 28.558C39.9153 28.8183 40.4806 29.177 41 29.6341C41.5195 29.1758 42.0847 28.8171 42.6959 28.558C43.307 28.2989 43.9639 28.1687 44.6667 28.1675H52C53.5278 28.1675 54.8264 28.7022 55.8959 29.7716C56.9653 30.8411 57.5 32.1397 57.5 33.6675V38.8008C58.05 39.3203 58.4931 39.9161 58.8292 40.5883C59.1653 41.2605 59.3334 42.0091 59.3334 42.8341V52.0008C59.3334 52.5203 59.1574 52.956 58.8054 53.308C58.4534 53.66 58.0182 53.8354 57.5 53.8341C56.9818 53.8329 56.5467 53.6569 56.1947 53.3061C55.8427 52.9554 55.6667 52.5203 55.6667 52.0008V50.1675H26.3334V52.0008C26.3334 52.5203 26.1574 52.956 25.8054 53.308C25.4534 53.66 25.0182 53.8354 24.5 53.8341C23.9818 53.8329 23.5467 53.6569 23.1947 53.3061C22.8427 52.9554 22.6667 52.5203 22.6667 52.0008ZM42.8334 37.3341H53.8334V33.6675C53.8334 33.148 53.6574 32.7129 53.3054 32.3621C52.9534 32.0114 52.5182 31.8354 52 31.8341H44.6667C44.1472 31.8341 43.7121 32.0101 43.3614 32.3621C43.0106 32.7141 42.8346 33.1493 42.8334 33.6675V37.3341ZM28.1667 37.3341H39.1667V33.6675C39.1667 33.148 38.9907 32.7129 38.6387 32.3621C38.2867 32.0114 37.8516 31.8354 37.3334 31.8341H30C29.4806 31.8341 29.0455 32.0101 28.6947 32.3621C28.3439 32.7141 28.1679 33.1493 28.1667 33.6675V37.3341ZM26.3334 46.5008H55.6667V42.8341C55.6667 42.3147 55.4907 41.8796 55.1387 41.5288C54.7867 41.178 54.3516 41.002 53.8334 41.0008H28.1667C27.6472 41.0008 27.2121 41.1768 26.8614 41.5288C26.5106 41.8808 26.3346 42.3159 26.3334 42.8341V46.5008Z" fill="#728F4D"/>
</svg>
