<svg width="82" height="82" viewBox="0 0 82 82" fill="none" xmlns="http://www.w3.org/2000/svg">
<rect width="82" height="82.0004" rx="12" fill="#728F4D"/>
<path d="M41 57.625H46.2106C46.283 55.2298 46.6341 53.913 47.2641 53.6744C53.8354 51.1806 58.5 44.8798 58.5 37.5H23.5C23.5 44.7196 27.9651 50.9076 34.3124 53.5072C34.9756 53.7791 35.4712 55.1517 35.799 57.625H41Z" stroke="#3D4F27" stroke-width="4" stroke-linejoin="round"/>
<path d="M32.6376 43.6451C32.9526 44.6835 33.3688 45.5415 33.8863 46.2194C34.4258 46.9136 35.0555 47.5327 35.7588 48.0604M42.0623 37.5227C44.0029 33.529 45.9343 29.5309 47.8565 25.5283C48.7753 23.5945 50.639 23.129 52.3584 23.864C54.0778 24.599 54.7734 26.7008 54.0515 28.1664C53.6053 29.0717 52.0915 32.1841 49.5103 37.5035" stroke="#3D4F27" stroke-width="4" stroke-linecap="round"/>
</svg>
