<svg width="82" height="82" viewBox="0 0 82 82" fill="none" xmlns="http://www.w3.org/2000/svg">
<rect y="0.000244141" width="82" height="82.0004" rx="12" fill="#C1B7A3"/>
<path d="M46.142 47.0085L47.858 50.6985C47.858 50.6985 55.572 52.3365 55.572 56.2325C55.572 59.0005 52.14 59.0005 52.14 59.0005H43L38.5 56.5005" stroke="#766E5E" stroke-width="3" stroke-linecap="round" stroke-linejoin="round"/>
<path d="M35.858 47.0085L34.144 50.6985C34.144 50.6985 26.428 52.3365 26.428 56.2325C26.428 59.0005 29.86 59.0005 29.86 59.0005H34L38.5 56.5005L44 53.0005" stroke="#766E5E" stroke-width="3" stroke-linecap="round" stroke-linejoin="round"/>
<path d="M23 48.8525C23 48.8525 27.286 47.9305 29.858 47.0085C32.428 34.0925 40.14 35.0145 41 35.0145C41.86 35.0145 49.572 34.0925 52.142 47.0085C54.714 47.9285 59 48.8525 59 48.8525M41 31.0005C42.0609 31.0005 43.0783 30.5791 43.8284 29.8289C44.5786 29.0788 45 28.0614 45 27.0005C45 25.9396 44.5786 24.9222 43.8284 24.1721C43.0783 23.4219 42.0609 23.0005 41 23.0005C39.9391 23.0005 38.9217 23.4219 38.1716 24.1721C37.4214 24.9222 37 25.9396 37 27.0005C37 28.0614 37.4214 29.0788 38.1716 29.8289C38.9217 30.5791 39.9391 31.0005 41 31.0005Z" stroke="#766E5E" stroke-width="3" stroke-linecap="round" stroke-linejoin="round"/>
</svg>
